<svg width="130" height="130" viewBox="0 0 130 130" fill="none" xmlns="http://www.w3.org/2000/svg">
<path d="M69.1759 12.7843L64.9482 12.1853C65.8419 9.51552 66.8387 5.92153 67.6807 0.838598L71.7881 1.42048C71.0319 6.1269 70.1727 9.72089 69.1759 12.7843ZM71.6334 14.53L69.4852 14.2219L70.0867 9.99472L70.7742 10.0974C70.8944 10.1145 70.9804 10.0289 70.9804 9.94337L72.3896 0L76.7719 0.616113L75.1049 12.2538C74.8471 14.0508 73.816 14.838 71.6334 14.53ZM75.7752 13.7085L76.8235 2.13928L80.8965 2.72116L79.8825 14.3075L75.7752 13.7085Z" fill="white"/>
<path d="M95.5539 10.5258L95.4164 10.7483L97.1693 11.5356L93.0448 20.589L92.7354 20.4521L92.4948 21.5132L89.7795 20.2809L90.0201 19.2199L89.7967 19.1172C89.5905 19.4595 89.3843 19.7504 89.1952 20.0071L86.2393 18.6722C86.4971 18.4497 86.7549 18.1588 86.9955 17.8507L86.7892 17.748L88.0953 14.89C88.0094 14.8557 87.9235 14.8044 87.8376 14.7702L86.1018 18.6037L79.5713 15.6772L81.2211 12.0319C81.1695 12.0148 81.118 11.9805 81.0492 11.9634L82.5788 8.59191C83.1115 8.83151 83.6099 9.00266 84.0739 9.12246C84.0739 8.95131 84.0567 8.79729 84.0224 8.62614C83.6443 8.64326 83.2318 8.62614 82.8022 8.54057L83.9708 5.97344L83.8161 5.90498L85.2769 2.6875L86.9955 3.42341L87.1158 3.1667L90.2435 4.58718L90.1232 4.84389L91.8246 5.61404L91.9105 5.42578L98.6473 8.47211L97.3412 11.3302L95.5539 10.5258ZM84.2629 14.7873L83.6443 14.4963L83.4037 15.0269L84.0224 15.3178L84.2629 14.7873ZM85.0707 12.203C84.7098 12.2715 84.3489 12.3399 83.9536 12.357L85.7237 13.1614C85.4488 12.8362 85.2253 12.5111 85.0707 12.203ZM85.2597 8.3352C85.0707 8.40366 84.8644 8.47211 84.6582 8.50634L86.2049 9.20803C86.4283 9.1738 86.6346 9.10534 86.8236 9.03689L85.2597 8.3352ZM88.3359 6.81203L87.047 6.23015L86.8923 6.58955L88.1813 7.17143L88.3359 6.81203ZM90.7419 9.00266L90.4841 8.88286L89.8483 10.2862C89.6077 10.6627 89.178 11.0393 88.6281 11.3987C88.8687 11.5356 89.1437 11.6896 89.4702 11.8265L90.7419 9.00266ZM91.3778 16.4474L90.8966 16.2249L90.6216 16.8239L91.1028 17.0464L91.3778 16.4474ZM90.9825 8.455L90.8794 8.6946L92.2371 9.31071L92.3745 9.08823L90.9825 8.455ZM92.2542 14.4963L91.773 14.291L91.4981 14.89L91.9793 15.1124L92.2542 14.4963ZM93.1135 12.6309L92.6323 12.4084L92.3917 12.9389L92.8729 13.1614L93.1135 12.6309Z" fill="white"/>
<path d="M99.5789 20.6748L97.5854 22.9853C96.7948 23.8923 95.5231 24.0121 94.7154 23.3276L92.6875 21.599L95.2997 18.5527L95.7122 18.9121C95.8496 19.0319 96.0559 19.0148 96.1762 18.8779L96.348 18.6725C96.0731 18.4671 95.8153 18.296 95.5747 18.1077L98.29 14.9416C98.5306 15.1298 98.7884 15.3181 99.0633 15.5063L99.9054 14.5308L99.1836 13.9147L101.641 11.0566L102.363 11.6728L102.81 11.1593L105.663 13.5895L105.216 14.103L105.869 14.6677L103.411 17.5258L102.775 16.9611L102.346 17.4574C102.638 17.5943 102.913 17.7312 103.171 17.8339L100.387 21.0685C100.129 20.9487 99.8711 20.8289 99.5789 20.6748ZM100.696 28.4447L101.28 27.7773L100.679 27.2638L100.094 27.9313L97.0698 25.347L102.827 18.6554L109.495 24.3373L103.738 31.029L100.696 28.4447ZM103.016 25.7578L102.415 25.2443L102.036 25.6722L102.638 26.1856L103.016 25.7578ZM103.016 18.4329L106.488 14.3939L113.156 20.093L109.684 24.1319L103.016 18.4329ZM104.752 23.7383L104.15 23.2249L103.789 23.6527L104.391 24.1662L104.752 23.7383ZM108.756 19.5453L107.673 18.6211L107.33 19.0148L108.412 19.9389L108.756 19.5453Z" fill="white"/>
<path d="M111.796 38.5573C110.25 38.5402 108.789 38.0953 107.706 37.1197L108.015 36.9315L107.002 35.3912L107.414 35.066C106.692 35.0831 106.108 34.6895 105.592 33.8851L104.63 32.4304L104.922 32.2422L103.857 30.6163C104.63 30.4623 105.73 29.8291 106.709 29.1958L107.826 30.8902C107.741 30.9415 107.637 31.01 107.534 31.0784L107.637 31.2496C107.689 31.318 107.758 31.2838 107.844 31.2324L108.205 31.01L106.898 29.0247L109.236 27.5015L113.24 33.5942L111.728 34.5697C113.068 35.2201 113.824 35.2201 115.44 34.1932C115.165 34.2617 114.89 34.313 114.632 34.313L113.721 32.9268L113.291 33.2006L109.597 27.6042L111.435 26.4062L114.752 31.4378C114.855 31.4207 114.958 31.4036 115.044 31.3694L111.521 26.0297L113.463 24.7633L114.477 26.3207L114.718 26.1666L113.704 24.6092L115.646 23.3428L116.66 24.9002L116.969 24.6948L118.842 27.5358L118.533 27.7411L119.461 29.1616L117.519 30.4281L116.591 29.0076L116.35 29.1616L117.278 30.5821L116.729 30.9415C118.069 30.5479 119.255 30.0173 120.08 29.4868L122.125 32.5845C121.97 32.6872 121.815 32.7898 121.609 32.8754L123.397 35.5966L120.63 37.3936L117.932 38.66L116.986 37.2053C116.849 37.2909 116.729 37.3593 116.608 37.4107C115.337 38.5573 115.233 39.4815 115.697 40.611L111.676 43.2295C111.057 41.5352 111.16 39.9778 111.796 38.5573ZM110.868 35.0489L110.009 33.7311L109.7 33.9365L110.559 35.2543L110.868 35.0489ZM118.241 34.0734C118.103 34.1076 117.949 34.1419 117.794 34.1761L118.361 35.0489L118.756 34.8778L118.241 34.0734Z" fill="white"/>
<path d="M121.182 49.1523C120.581 49.3406 119.876 48.9641 119.704 48.3651C119.515 47.7661 119.824 47.0644 120.495 46.8761C121.165 46.6879 121.801 47.013 122.007 47.6805C122.179 48.3308 121.784 48.9812 121.182 49.1523Z" fill="white"/>
<path d="M117.246 64.4691L117.092 57.6747L129.844 57.3838L129.998 64.4691C130.084 68.1829 127.867 69.6718 125.014 69.7232L122.986 69.7745C119.412 69.843 117.332 68.4396 117.246 64.4691ZM124.688 65.0681C125.272 65.051 125.856 64.7087 125.839 63.6818L125.805 62.056L121.405 62.1587L121.44 63.6476C121.474 64.9141 122.093 65.1365 122.763 65.1194L124.688 65.0681Z" fill="white"/>
<path d="M115.457 78.2804L116.23 74.8575C116.866 72.0679 118.464 71.1437 120.905 71.6914L122.795 72.1193C125.184 72.6669 126.232 74.2072 125.596 76.9797L124.823 80.4026C124.17 83.2435 122.451 83.9965 120.252 83.5002L118.241 83.0382C116.024 82.5418 114.804 81.1214 115.457 78.2804ZM120.372 79.2217C120.664 79.2901 120.991 79.1874 121.094 78.7425L121.523 76.8257C121.627 76.3465 121.369 76.1411 121.094 76.0727L120.699 75.9871C120.355 75.9015 120.08 75.9529 119.96 76.4834L119.53 78.4002C119.41 78.8965 119.719 79.0848 119.994 79.1361L120.372 79.2217Z" fill="white"/>
<path d="M111.247 89.1641L115.269 91.1494C115.801 91.4061 116.111 91.235 116.351 90.7386L116.798 89.8487C117.056 89.3353 116.936 88.8903 116.489 88.6678L112.467 86.6826L114.478 82.6094L119.892 85.2792C121.765 86.2034 122.435 87.8292 121.49 89.7118L119.221 94.2813C118.293 96.1639 116.472 96.8313 114.616 95.9071L109.202 93.2373L111.247 89.1641Z" fill="white"/>
<path d="M103.118 100.631L106.847 96.1982C108.17 94.6237 109.769 94.4697 110.937 95.4452L111.436 95.873C112.587 96.8314 112.621 98.3032 111.401 99.7408L108.428 103.266C108.686 103.472 108.909 103.472 109.184 103.147L113.395 98.1321L115.852 100.186L110.662 106.347C108.926 108.418 107.397 108.144 105.558 106.621L103.066 104.533C101.915 103.592 101.829 102.154 103.118 100.631ZM106.486 101.555C106.589 101.641 106.744 101.641 106.899 101.452L108.411 99.6553C108.6 99.4328 108.583 99.313 108.462 99.2103L108.359 99.1247C108.239 99.022 108.102 99.022 107.912 99.2445L106.4 101.042C106.228 101.247 106.245 101.35 106.383 101.469L106.486 101.555Z" fill="white"/>
<path d="M98.9238 111.26L98.477 110.661C98.2192 110.318 98.1333 110.301 97.7208 110.592L94.2665 113.159L91.8262 109.908L96.4491 106.468C98.5285 104.927 100.007 105.338 101.106 106.827L102.447 108.624L104.011 107.46L106.468 110.746L104.904 111.91L105.97 113.33L102.43 115.966L101.364 114.545L97.2912 117.575L94.8336 114.289L98.9238 111.26Z" fill="white"/>
<path d="M84.7123 117.164L89.0946 115.247C88.9399 114.973 88.7165 114.819 88.2525 115.025L82.0657 117.729L80.7939 114.854L88.2009 111.619C90.4007 110.661 91.7583 111.242 92.7723 113.57L93.9581 116.274C94.5424 117.592 94.2846 119.286 92.2395 120.176L87.1698 122.384C85.2966 123.205 83.9217 122.606 83.2343 121.049L83.0281 120.587C82.4438 119.183 82.6672 118.071 84.7123 117.164ZM86.9979 119.115C87.0667 119.286 87.2729 119.372 87.5135 119.269L89.7133 118.311C90.0913 118.157 90.2288 117.831 90.0913 117.489L90.0398 117.369L87.2214 118.602C86.9979 118.687 86.8948 118.858 86.9808 119.064L86.9979 119.115Z" fill="white"/>
<path d="M72.649 122.574C72.5459 121.958 73.0271 121.324 73.6457 121.222C74.2644 121.119 74.9175 121.53 75.0206 122.214C75.1237 122.899 74.6941 123.481 74.0066 123.583C73.3364 123.686 72.7521 123.19 72.649 122.574Z" fill="white"/>
<path d="M54.7574 116.307L53.8122 127.894L49.7393 127.363L50.6329 115.76L54.7574 116.307ZM58.882 115.452L61.0302 115.743L60.4631 119.97L59.7756 119.884C59.6553 119.867 59.5694 119.953 59.5694 120.038L58.2461 129.999L53.8638 129.417L55.4105 117.762C55.6683 115.948 56.6994 115.161 58.882 115.452ZM61.3567 117.163L65.5844 117.728C64.7079 120.415 63.7627 124.009 62.9721 129.092L58.8648 128.544C59.5694 123.838 60.3943 120.244 61.3567 117.163Z" fill="white"/>
<path d="M34.9594 119.68L35.0969 119.457L33.344 118.687L37.3826 109.582L37.6919 109.719L37.9153 108.658L40.6478 109.856L40.4244 110.917L40.6478 111.02C40.8541 110.661 41.0431 110.387 41.2493 110.13L44.2224 111.448C43.9647 111.67 43.7241 111.978 43.4835 112.286L43.7069 112.389L42.4351 115.264C42.5211 115.299 42.607 115.333 42.6929 115.384L44.3943 111.533L50.9248 114.409L49.3094 118.071C49.3609 118.088 49.4125 118.122 49.4812 118.139L47.9517 121.511C47.4018 121.271 46.9206 121.1 46.4566 120.998C46.4566 121.169 46.4738 121.323 46.5081 121.494C46.8862 121.477 47.2987 121.477 47.7455 121.579L46.5941 124.164L46.7487 124.232L45.3223 127.467L43.6038 126.714L43.4835 126.97L40.3385 125.584L40.4588 125.327L38.7574 124.574L38.6715 124.763L31.9004 121.785L33.1721 118.91L34.9594 119.68ZM37.3998 117.558L37.881 117.78L38.1216 117.25L37.6404 117.027L37.3998 117.558ZM39.5652 121.699L39.6683 121.46L38.3106 120.861L38.1731 121.083L39.5652 121.699ZM38.2247 115.675L38.7059 115.898L38.9637 115.299L38.4825 115.076L38.2247 115.675ZM39.1011 113.724L39.5823 113.947L39.8401 113.348L39.3589 113.125L39.1011 113.724ZM39.8058 121.169L40.0635 121.289L40.6822 119.885C40.9228 119.509 41.3525 119.115 41.9024 118.773C41.6618 118.636 41.3696 118.499 41.0603 118.345L39.8058 121.169ZM42.2289 123.342L43.535 123.907L43.6897 123.548L42.3836 122.983L42.2289 123.342ZM45.288 121.768C45.477 121.699 45.666 121.631 45.8894 121.579L44.3256 120.895C44.1021 120.929 43.8959 120.998 43.7069 121.066L45.288 121.768ZM45.4426 117.9C45.8035 117.831 46.1644 117.763 46.5597 117.746L44.7896 116.959C45.0645 117.284 45.288 117.592 45.4426 117.9ZM46.216 115.316L46.8518 115.589L47.0924 115.042L46.4566 114.768L46.216 115.316Z" fill="white"/>
<path d="M27.4522 111.843L24.0151 115.916L17.2783 110.285L20.7154 106.212L27.4522 111.843ZM29.6519 101.797L29.0848 102.481L29.7035 102.995L30.2706 102.31L33.3296 104.86L27.624 111.62L20.9045 105.99L26.6101 99.2295L29.6519 101.797ZM21.6778 110.782L22.7605 111.689L23.1042 111.278L22.0215 110.371L21.6778 110.782ZM30.8549 109.566L32.8313 107.222C33.6046 106.298 34.8763 106.178 35.7013 106.845L37.7463 108.557L35.1513 111.62L34.7389 111.261C34.6014 111.141 34.3952 111.158 34.2749 111.295L34.103 111.5C34.3952 111.689 34.6529 111.877 34.8763 112.065L32.1954 115.248C31.9548 115.077 31.6798 114.889 31.422 114.701L30.58 115.693L31.3189 116.31L28.8958 119.185L28.1568 118.569L27.71 119.099L24.84 116.686L25.2868 116.155L24.6337 115.608L27.0569 112.733L27.71 113.28L28.1396 112.784C27.8474 112.647 27.5725 112.51 27.3147 112.425L30.0644 109.173C30.305 109.293 30.5628 109.43 30.8549 109.566ZM25.6477 106.554L26.2664 107.068L26.6273 106.64L26.0086 106.127L25.6477 106.554ZM27.3663 104.518L27.9849 105.031L28.3458 104.603L27.7271 104.09L27.3663 104.518Z" fill="white"/>
<path d="M18.463 91.8011C20.0097 91.8011 21.4876 92.229 22.5703 93.2045L22.2782 93.4098L23.3093 94.933L22.8968 95.2582C23.6186 95.2239 24.2029 95.6347 24.7357 96.4219L25.7153 97.8767L25.4231 98.0649L26.5058 99.6908C25.7325 99.8448 24.6326 100.495 23.6702 101.128L22.5359 99.4512C22.6219 99.3827 22.725 99.3314 22.8281 99.2629L22.7078 99.0918C22.6562 99.0233 22.5875 99.0575 22.5016 99.126L22.1579 99.3656L23.4811 101.334L21.1611 102.891L17.0881 96.8498L18.5833 95.8572C17.2256 95.2239 16.4866 95.2239 14.8884 96.2679C15.1633 96.1995 15.4383 96.1481 15.6961 96.1481L16.6241 97.5344L17.0537 97.2434L20.8002 102.806L18.9613 104.021L15.593 99.0233C15.4727 99.0062 15.3867 99.0404 15.2836 99.0746L18.8582 104.38L16.9163 105.664L15.8851 104.123L15.6445 104.277L16.6757 105.818L14.7509 107.101L13.7197 105.561L13.4104 105.766L11.52 102.942L11.8293 102.737L10.8841 101.334L12.8089 100.05L13.7541 101.454L13.9947 101.3L13.0495 99.879L13.5994 99.5196C12.259 99.9304 11.0732 100.478 10.2654 101.009L8.18599 97.928C8.34066 97.8253 8.49533 97.7226 8.70155 97.6199L6.87988 94.9159L9.62957 93.0847L12.3277 91.8011L13.2901 93.2387C13.4276 93.1531 13.5479 93.0847 13.6682 93.0162C14.9227 91.8524 15.0258 90.9283 14.5618 89.7987L18.5489 87.1289C19.1676 88.8232 19.0816 90.3806 18.463 91.8011ZM12.0699 96.3535C12.2074 96.3193 12.3621 96.2679 12.5168 96.2508L11.9324 95.378L11.5544 95.5662L12.0699 96.3535ZM19.4254 95.3095L20.3018 96.6102L20.6112 96.4048L19.7347 95.1041L19.4254 95.3095Z" fill="white"/>
<path d="M8.99379 81.308C9.59528 81.1198 10.2999 81.4792 10.4889 82.0782C10.678 82.6772 10.3686 83.3789 9.71558 83.5842C9.06253 83.7896 8.40948 83.4473 8.20325 82.797C7.99703 82.1466 8.40948 81.4963 8.99379 81.308Z" fill="white"/>
<path d="M12.7736 65.974L12.997 72.7684L0.245306 73.1962L0.00470776 66.128C-0.115591 62.4142 2.08416 60.9082 4.93697 60.8226L6.96486 60.7542C10.5566 60.6344 12.6361 62.0206 12.7736 65.974ZM5.31505 65.4606C4.73074 65.4777 4.14643 65.8371 4.1808 66.8639L4.23236 68.4898L8.63186 68.3529L8.59749 66.8468C8.56312 65.5804 7.92726 65.375 7.25702 65.3921L5.31505 65.4606Z" fill="white"/>
<path d="M14.4068 52.1824L13.6678 55.6052C13.0663 58.412 11.4852 59.3362 9.02767 58.8227L7.13725 58.412C4.73127 57.8986 3.68295 56.3583 4.28445 53.5858L5.02343 50.1629C5.64211 47.3219 7.36067 46.5347 9.56042 47.0139L11.5711 47.4417C13.8053 47.9209 15.0254 49.3414 14.4068 52.1824ZM9.49168 51.2925C9.19952 51.2411 8.873 51.3438 8.76988 51.7888L8.35743 53.7056C8.25432 54.1848 8.52928 54.3901 8.80425 54.4586L9.19952 54.5442C9.54323 54.6126 9.8182 54.5613 9.9385 54.0478L10.351 52.1311C10.4541 51.6347 10.1447 51.4465 9.88695 51.3951L9.49168 51.2925Z" fill="white"/>
<path d="M18.5121 41.1957L14.4735 39.2618C13.9408 39.0051 13.6314 39.1763 13.3908 39.6726L12.9612 40.5625C12.7034 41.0759 12.8237 41.5209 13.2877 41.7434L17.3263 43.6773L15.35 47.7505L9.91935 45.132C8.04612 44.225 7.3587 42.5991 8.26954 40.7165L10.4865 36.1299C11.3973 34.2302 13.2018 33.5628 15.075 34.4698L20.5057 37.0883L18.5121 41.1957Z" fill="white"/>
<path d="M26.5359 29.6401L22.841 34.1069C21.5349 35.6986 19.9366 35.8697 18.768 34.8942L18.2524 34.4834C17.0838 33.525 17.0494 32.0703 18.2524 30.6156L21.1912 27.0559C20.9334 26.8505 20.71 26.8505 20.435 27.1928L16.2589 32.2415L13.7842 30.2049L18.9227 23.9753C20.6412 21.8874 22.1879 22.1441 24.0268 23.6501L26.5359 25.7038C27.7217 26.6622 27.8076 28.0998 26.5359 29.6401ZM23.1675 28.7502C23.0644 28.6646 22.9097 28.6646 22.755 28.8529L21.2599 30.667C21.0709 30.8895 21.088 31.0093 21.2083 31.1119L21.3115 31.1975C21.4318 31.3002 21.5692 31.3002 21.7583 31.0777L23.2534 29.2636C23.4253 29.0582 23.4081 28.9555 23.2706 28.8357L23.1675 28.7502Z" fill="white"/>
<path d="M30.6112 18.9802L31.0752 19.5792C31.333 19.9215 31.4361 19.9386 31.8314 19.6305L35.2513 17.0292L37.726 20.2638L33.1375 23.7551C31.0752 25.3296 29.5973 24.9188 28.463 23.447L27.0882 21.6671L25.5415 22.848L23.0496 19.5963L24.5963 18.4154L23.5136 17.0121L27.0366 14.3422L28.1193 15.7456L32.1579 12.665L34.6498 15.9167L30.6112 18.9802Z" fill="white"/>
<path d="M44.7699 12.9189L40.4048 14.887C40.5595 15.1438 40.8001 15.2978 41.2469 15.1095L47.4165 12.337L48.7226 15.2122L41.35 18.5153C39.1503 19.5079 37.7926 18.926 36.7443 16.6156L35.5241 13.9115C34.9398 12.6108 35.1632 10.8994 37.1911 9.97525L42.2437 7.71617C44.1169 6.87757 45.4917 7.45946 46.1964 8.99974L46.4026 9.46182C47.0213 10.8823 46.815 12.0118 44.7699 12.9189ZM42.4671 11.0021C42.3983 10.831 42.1921 10.7454 41.9515 10.8652L39.7518 11.8578C39.3737 12.029 39.2362 12.3541 39.3909 12.6793L39.4424 12.7991L42.2609 11.5326C42.4671 11.43 42.5874 11.2759 42.5015 11.0706L42.4671 11.0021Z" fill="white"/>
<path d="M56.752 7.41084C56.8551 8.02695 56.3911 8.67729 55.7724 8.76286C55.1537 8.84843 54.5007 8.47192 54.3976 7.78735C54.2944 7.10278 54.7069 6.5209 55.3943 6.41821C56.0817 6.31552 56.6489 6.79472 56.752 7.41084Z" fill="white"/>
<path d="M55.4928 62.7426C60.4506 62.7426 64.4924 57.3438 64.4924 50.7107C64.4924 44.0883 60.4506 38.6895 55.4928 38.6895C50.5349 38.6895 46.4932 44.0883 46.4932 50.7214C46.4932 57.3545 50.5349 62.7426 55.4928 62.7426Z" fill="white"/>
<path d="M82.177 74.4407C81.9938 74.1939 81.8105 73.9577 81.7243 73.7538C79.7088 69.4605 74.2013 64.4052 65.2664 64.2871H64.9215C56.1267 64.2871 50.6515 69.0741 48.4527 73.5606C48.3773 73.7109 48.2156 73.9148 48.0324 74.1187C47.8276 74.3656 47.6121 74.6125 47.4396 74.8915C45.5858 77.7573 44.6481 80.988 44.7882 83.9826C44.9284 87.1596 46.2648 89.7141 48.539 91.1739C49.4551 91.7642 50.4467 92.054 51.4921 92.054C53.6369 92.054 55.5985 90.8519 57.8727 89.4565C59.3169 88.5657 60.8151 87.6534 62.4749 86.9664C62.6581 86.902 63.4233 86.8162 64.6736 86.8162C66.1609 86.8162 67.2172 86.945 67.4435 87.0201C69.0602 87.7285 70.4829 88.6623 71.8625 89.5639C73.975 90.9485 75.9689 92.2579 78.1245 92.2579C79.0514 92.2579 79.9567 92.011 80.7974 91.5388C85.4751 88.8877 86.3696 81.632 82.7806 75.3531C82.6081 75.0203 82.3926 74.7305 82.177 74.4407Z" fill="white"/>
<path d="M74.6246 62.7426C79.5825 62.7426 83.6242 57.3438 83.6242 50.7107C83.6242 44.0883 79.5932 38.6895 74.6246 38.6895C69.6667 38.6895 65.625 44.0883 65.625 50.7214C65.625 57.3545 69.6667 62.7426 74.6246 62.7426Z" fill="white"/>
<path d="M89.4014 56.5693C85.4243 56.5693 82.3094 60.6802 82.3094 65.918C82.3094 71.1558 85.4243 75.2666 89.4014 75.2666C93.3784 75.2666 96.4932 71.1558 96.4932 65.918C96.4932 60.6694 93.3784 56.5693 89.4014 56.5693Z" fill="white"/>
<path d="M48.552 65.918C48.552 60.6694 45.4371 56.5693 41.4601 56.5693C37.483 56.5693 34.3682 60.6694 34.3682 65.918C34.3682 71.1558 37.483 75.2666 41.4601 75.2666C45.4371 75.2666 48.552 71.1558 48.552 65.918Z" fill="white"/>
</svg>
