<svg width="243" height="58" viewBox="0 0 243 58" fill="none" xmlns="http://www.w3.org/2000/svg">
<path d="M25.8909 36.7645C25.006 37.3378 24.2333 37.7366 23.3423 38.0793L22.9185 38.2413V33.0133H25.8909V19.2672H22.9185V16.351H26.8255V0.374023H0V16.3572H9.72699V39.9051H8.04455V18.0334H1.11539V40.092H0V56.9413C19.3418 56.5799 21.9465 56.2185 25.8909 53.2587V36.7645Z" fill="white" fill-opacity="0.7"/>
<path d="M41.6872 51.7194L41.8742 51.8503C46.2983 54.8849 51.408 56.7106 57.0597 57.2777V39.3254C55.2838 39.207 53.4643 39.0762 51.7881 38.721L51.4204 38.64L51.5638 38.291C53.8818 32.7639 55.2714 26.2087 55.6888 18.8122L55.7075 18.5193H57.0535V1.91923H45.588V0H30.7327C30.7078 8.95431 29.5612 15.2666 27.5734 17.4101V35.8422C27.9224 35.6926 28.2526 35.5306 28.5767 35.3748C28.8197 35.2564 29.0627 35.138 29.3057 35.0321L29.6173 34.8888L29.7294 35.219C30.0971 36.3157 30.527 37.4311 31.0131 38.5403L31.1626 38.883L30.795 38.9703C29.8541 39.1884 28.7449 39.4314 27.5672 39.5685V57.2839C32.9136 56.6919 37.5995 54.8662 41.5065 51.869L41.6872 51.7194ZM41.0828 29.8165C40.7837 28.6264 40.603 27.3801 40.5282 26.0217H38.4968L38.7585 25.5544C39.7805 23.7348 40.6653 21.5103 41.4567 18.7436L41.519 18.5193H43.6376L43.6189 18.8495C43.3634 23.2176 42.7278 26.8131 41.681 29.8352L41.3383 30.8198L41.0828 29.8165Z" fill="white" fill-opacity="0.7"/>
<path d="M119 57.2692V43.2636C110.863 43.0718 105.735 42.6635 102.089 41.0922L101.895 41.0118V41.0798L101.432 40.8386C101.37 40.8014 101.307 40.7705 101.245 40.7334L100.701 40.4983H100.826C100.044 40.0467 99.3686 39.5828 98.7682 39.0755L98.6556 38.9827V37.0526H101.889V40.4983H117.993V29.9198H99.0308V28.0702H118.744V15.84H115.948V12.6974H118.812V1.69204H108.174L108.431 0.275391H91.8449C91.601 1.89619 90.8255 6.36884 89.95 10.1239L89.3934 12.5118H89.4121L89.3371 12.7654V12.7221L89.0744 13.4397C88.9118 13.8975 88.7742 14.281 88.6304 14.6027L88.5491 14.7883H86.5353V12.5056H89.3308V1.69204H80.2249L80.35 0.275391H63.1889C62.9137 2.81793 62.0444 9.79601 61 14.2934H72.3573L72.7326 12.5118H74.7276V15.84H61.6066V28.0763H81.2569V29.926H62.2883V40.5045H78.455V37.0588H81.6884V39.1621L81.5883 39.2549C81.0755 39.7188 80.4813 40.1271 79.7496 40.5045H79.8997L78.5176 41.0984C74.859 42.6635 69.7369 43.078 61.6066 43.2636V57.2754C68.8176 56.7929 75.278 55.3638 80.8253 53.0193L81.2631 52.8337V56.929H99.0434V52.7038L99.4811 52.8894C104.966 55.2525 111.533 56.7248 119 57.2692ZM99.0308 14.2934H100.269L100.644 12.5118H102.702V15.84H99.0308V14.2934Z" fill="white" fill-opacity="0.7"/>
<path d="M147.119 0.0556641H124.811V6.74181H147.119V0.0556641Z" fill="white" fill-opacity="0.7"/>
<path d="M147.119 21.8037H124.811V27.9976H147.119V21.8037Z" fill="white" fill-opacity="0.7"/>
<path d="M172.599 55.8386L172.711 55.8012L172.823 55.8511C174.811 56.711 177.341 57.1036 181.005 57.1222V48.0184C180.787 48.0122 180.569 47.9997 180.369 47.9498L180.045 47.8688L180.145 47.551C180.506 46.417 180.743 45.2392 180.942 44.1114H175.957L175.876 43.9182C175.783 43.6939 175.727 43.482 175.665 43.2328C175.633 43.1144 175.596 42.9835 175.559 42.8402L175.44 42.4414H180.942V33.5806H174.518L174.499 33.2877C174.375 31.1255 174.375 28.5831 174.375 25.6482H164.218C164.218 28.3962 164.224 30.9884 164.342 33.2503L164.361 33.5806H161.308V31.7361L161.601 31.7174C162.348 31.6676 162.728 31.624 162.922 31.599V24.9814C161.202 25.4862 156.821 25.7105 148.677 25.7167V32.0913H150.721V33.5806H148.677V42.4414H150.721V44.8591H150.409C150.11 44.8591 149.792 44.8467 149.462 44.828C149.207 44.8155 148.945 44.8031 148.677 44.7968V54.7045C149.176 54.7045 149.649 54.717 150.073 54.7668L150.347 54.8042V57.1222H161.314V54.4989L161.869 54.4179C162.199 54.368 162.523 54.3244 162.809 54.2746L163.171 54.2123V57.116C167.333 57.035 170.337 56.63 172.599 55.8386ZM161.65 45.476L161.302 45.5197V42.4414H165.096L165.14 42.6969C165.514 44.828 165.95 46.6662 166.43 48.1679L166.542 48.5231L166.174 48.573C165.663 48.6415 165.215 48.6415 164.648 48.6415H164.336V45.1084C163.514 45.2393 162.685 45.3514 161.65 45.476Z" fill="white" fill-opacity="0.7"/>
<path d="M124.811 37.793V57.1223H147.119V37.793H124.811ZM137.392 48.9469H134.601V46.093H137.392V48.9469Z" fill="white" fill-opacity="0.7"/>
<path d="M147.119 29.6797H124.811V36.0543H147.119V29.6797Z" fill="white" fill-opacity="0.7"/>
<path d="M181.204 31.966L180.3 25.6475H175.303L176.312 31.966H181.204Z" fill="white" fill-opacity="0.7"/>
<path d="M123.571 20.0709H148.671V23.9716H180.949V16.9739H171.527V15.36H180.949V10.2816H171.527V8.60536H180.949V1.60766H177.908L178.213 0H166.28L166.025 1.60766H162.492L162.423 1.38334C162.317 1.01569 162.211 0.554581 162.093 0H150.285L150.297 0.056079C150.391 0.51096 150.478 0.922227 150.521 1.25248L150.571 1.60766H148.671V8.36234H123.571V20.0709ZM148.048 8.60536H157.469V10.2816H148.048V8.60536ZM148.048 15.36H157.469V16.9739H148.048V15.36Z" fill="white" fill-opacity="0.7"/>
<path d="M191.143 52.5359L191.386 52.2306L191.629 52.5296C194.047 55.5082 196.371 56.5675 200.496 56.5675H242.439V43.189H209.164V41.519L215.483 41.4567V34.5836H209.164V32.9697H215.427V21.9404H185.566V32.9697H195.91V42.3976L195.462 42.1733C195.181 42.0362 194.944 41.868 194.695 41.6935C194.595 41.625 194.49 41.5502 194.377 41.4754L194.215 41.3695L194.247 41.1763C194.539 39.1449 194.72 36.9889 194.795 34.5961H187.236C187.199 35.5744 186.95 37.612 185.573 38.2725V56.2622C187.741 55.72 189.617 54.4738 191.143 52.5359Z" fill="white" fill-opacity="0.7"/>
<path d="M214.561 20.1955V0H186.314V20.1955H214.561ZM198.509 6.13155H202.36V8.6116H198.509V6.13155ZM198.509 11.5216H202.36V14.0016H198.509V11.5216Z" fill="white" fill-opacity="0.7"/>
<path d="M241.76 38.042V12.5811H236.239L236.613 10.7803H243V0.0625H216.299V10.7803H223.559L223.185 12.5811H217.109V38.042H218.767L218.567 38.4844C218.038 39.6497 217.296 40.7152 216.517 41.4505H227.21C227.777 40.4473 228.039 39.4565 228.263 38.2975L228.313 38.042H230.781L231.84 41.4505H242.283L240.794 38.042H241.76ZM231.36 32.1597H227.578V29.6796H231.36V32.1597ZM231.36 26.645H227.578V24.165H231.36V26.645ZM231.36 21.1304H227.578V18.7126H231.36V21.1304Z" fill="white" fill-opacity="0.7"/>
</svg>
