<svg width="193" height="212" viewBox="0 0 193 212" fill="none" xmlns="http://www.w3.org/2000/svg">
<path d="M42.05 59.2008C40.63 60.1208 39.39 60.7608 37.96 61.3108L37.28 61.5708V53.1808H42.05V31.1208H37.28V26.4408H43.55V0.800781H0.5V26.4508H16.11V64.2408H13.41V29.1408H2.29V64.5408H0.5V91.5808C31.54 91.0008 35.72 90.4208 42.05 85.6708V59.2008Z" fill="white" fill-opacity="0.7"/>
<path d="M67.4002 83.2002L67.7002 83.4102C74.8002 88.2802 83.0002 91.2102 92.0702 92.1202V63.3102C89.2202 63.1202 86.3002 62.9102 83.6102 62.3402L83.0202 62.2102L83.2502 61.6502C86.9702 52.7802 89.2002 42.2602 89.8702 30.3902L89.9002 29.9202H92.0602V3.2802H73.6602V0.200195H49.8202C49.7802 14.5702 47.9402 24.7002 44.7502 28.1402V57.7202C45.3102 57.4802 45.8402 57.2202 46.3602 56.9702C46.7502 56.7802 47.1402 56.5902 47.5302 56.4202L48.0302 56.1902L48.2102 56.7202C48.8002 58.4802 49.4902 60.2702 50.2702 62.0502L50.5102 62.6002L49.9202 62.7402C48.4102 63.0902 46.6302 63.4802 44.7402 63.7002V92.1302C53.3202 91.1802 60.8402 88.2502 67.1102 83.4402L67.4002 83.2002ZM66.4302 48.0502C65.9502 46.1402 65.6602 44.1402 65.5402 41.9602H62.2802L62.7002 41.2102C64.3402 38.2902 65.7602 34.7202 67.0302 30.2802L67.1302 29.9202H70.5302L70.5002 30.4502C70.0902 37.4602 69.0702 43.2302 67.3902 48.0802L66.8402 49.6602L66.4302 48.0502Z" fill="white" fill-opacity="0.7"/>
<path d="M191.87 92.13V69.49C178.86 69.18 170.66 68.52 164.83 65.98L164.52 65.85V65.96L163.78 65.57C163.68 65.51 163.58 65.46 163.48 65.4L162.61 65.02H162.81C161.56 64.29 160.48 63.54 159.52 62.72L159.34 62.57V59.45H164.51V65.02H190.26V47.92H159.94V44.93H191.46V25.16H186.99V20.08H191.57V2.29H174.56L174.97 0H148.45C148.06 2.62 146.82 9.85 145.42 15.92L144.53 19.78H144.56L144.44 20.19V20.12L144.02 21.28C143.76 22.02 143.54 22.64 143.31 23.16L143.18 23.46H139.96V19.77H144.43V2.29H129.87L130.07 0H102.63C102.19 4.11 100.8 15.39 99.1299 22.66H117.29L117.89 19.78H121.08V25.16H100.1V44.94H131.52V47.93H101.19V65.03H127.04V59.46H132.21V62.86L132.05 63.01C131.23 63.76 130.28 64.42 129.11 65.03H129.35L127.14 65.99C121.29 68.52 113.1 69.19 100.1 69.49V92.14C111.63 91.36 121.96 89.05 130.83 85.26L131.53 84.96V91.58H159.96V84.75L160.66 85.05C169.43 88.87 179.93 91.25 191.87 92.13ZM159.94 22.66H161.92L162.52 19.78H165.81V25.16H159.94V22.66Z" fill="white" fill-opacity="0.7"/>
<path d="M37.7902 119.59H1.99023V130.32H37.7902V119.59Z" fill="white" fill-opacity="0.7"/>
<path d="M37.7902 154.49H1.99023V164.43H37.7902V154.49Z" fill="white" fill-opacity="0.7"/>
<path d="M78.68 209.11L78.86 209.05L79.04 209.13C82.23 210.51 86.29 211.14 92.17 211.17V196.56C91.82 196.55 91.47 196.53 91.15 196.45L90.63 196.32L90.79 195.81C91.37 193.99 91.75 192.1 92.07 190.29H84.07L83.94 189.98C83.79 189.62 83.7 189.28 83.6 188.88C83.55 188.69 83.49 188.48 83.43 188.25L83.24 187.61H92.07V173.39H81.76L81.73 172.92C81.53 169.45 81.53 165.37 81.53 160.66H65.23C65.23 165.07 65.24 169.23 65.43 172.86L65.46 173.39H60.56V170.43L61.03 170.4C62.23 170.32 62.84 170.25 63.15 170.21V159.59C60.39 160.4 53.36 160.76 40.29 160.77V171H43.57V173.39H40.29V187.61H43.57V191.49H43.07C42.59 191.49 42.08 191.47 41.55 191.44C41.14 191.42 40.72 191.4 40.29 191.39V207.29C41.09 207.29 41.85 207.31 42.53 207.39L42.97 207.45V211.17H60.57V206.96L61.46 206.83C61.99 206.75 62.51 206.68 62.97 206.6L63.55 206.5V211.16C70.23 211.03 75.05 210.38 78.68 209.11ZM61.11 192.48L60.55 192.55V187.61H66.64L66.71 188.02C67.31 191.44 68.01 194.39 68.78 196.8L68.96 197.37L68.37 197.45C67.55 197.56 66.83 197.56 65.92 197.56H65.42V191.89C64.1 192.1 62.77 192.28 61.11 192.48Z" fill="white" fill-opacity="0.7"/>
<path d="M1.99023 180.15V211.17H37.7902V180.15H1.99023ZM22.1802 198.05H17.7002V193.47H22.1802V198.05Z" fill="white" fill-opacity="0.7"/>
<path d="M37.7902 167.13H1.99023V177.36H37.7902V167.13Z" fill="white" fill-opacity="0.7"/>
<path d="M92.4895 170.8L91.0395 160.66H83.0195L84.6395 170.8H92.4895Z" fill="white" fill-opacity="0.7"/>
<path d="M0 151.71H40.28V157.97H92.08V146.74H76.96V144.15H92.08V136H76.96V133.31H92.08V122.08H87.2L87.69 119.5H68.54L68.13 122.08H62.46L62.35 121.72C62.18 121.13 62.01 120.39 61.82 119.5H42.87L42.89 119.59C43.04 120.32 43.18 120.98 43.25 121.51L43.33 122.08H40.28V132.92H0V151.71ZM39.28 133.31H54.4V136H39.28V133.31ZM39.28 144.15H54.4V146.74H39.28V144.15Z" fill="white" fill-opacity="0.7"/>
<path d="M109.04 204.2L109.43 203.71L109.82 204.19C113.7 208.97 117.43 210.67 124.05 210.67H191.36V189.2H137.96V186.52L148.1 186.42V175.39H137.96V172.8H148.01V155.1H100.09V172.8H116.69V187.93L115.97 187.57C115.52 187.35 115.14 187.08 114.74 186.8C114.58 186.69 114.41 186.57 114.23 186.45L113.97 186.28L114.02 185.97C114.49 182.71 114.78 179.25 114.9 175.41H102.77C102.71 176.98 102.31 180.25 100.1 181.31V210.18C103.58 209.31 106.59 207.31 109.04 204.2Z" fill="white" fill-opacity="0.7"/>
<path d="M146.62 152.3V119.89H101.29V152.3H146.62ZM120.86 129.73H127.04V133.71H120.86V129.73ZM120.86 138.38H127.04V142.36H120.86V138.38Z" fill="white" fill-opacity="0.7"/>
<path d="M190.27 180.94V140.08H181.41L182.01 137.19H192.26V119.99H149.41V137.19H161.06L160.46 140.08H150.71V180.94H153.37L153.05 181.65C152.2 183.52 151.01 185.23 149.76 186.41H166.92C167.83 184.8 168.25 183.21 168.61 181.35L168.69 180.94H172.65L174.35 186.41H191.11L188.72 180.94H190.27ZM173.58 171.5H167.51V167.52H173.58V171.5ZM173.58 162.65H167.51V158.67H173.58V162.65ZM173.58 153.8H167.51V149.92H173.58V153.8Z" fill="white" fill-opacity="0.7"/>
</svg>
